<?xml version="1.0" encoding="UTF-8"?>
<svg id="Capa_1" data-name="Capa 1" xmlns="http://www.w3.org/2000/svg" viewBox="0 0 547.31 251.77">
  <defs>
    <style>
      .cls-1 {
        fill-rule: evenodd;
      }
    </style>
  </defs>
  <path d="M72.4,60.21h30.22v78.53c0,25.65,9.74,32.21,29.23,32.21s29.22-6.56,29.22-32.21V60.21h30.02v82.7c0,34.4-19.68,52.68-59.24,52.68s-59.44-18.09-59.44-52.68V60.21Z"/>
  <path d="M474.91,156.43c0,22.27-14.51,35.99-42.74,35.99h-72.37V60.21h73.76c28.23,0,39.56,14.71,39.56,32.6,0,19.48-12.13,28.23-27.24,31.41,16.5,2.59,29.02,11.14,29.02,32.21m-84.89-73.36v31.61h33.6c13.12,0,17.89-6.36,17.89-15.91,0-10.14-4.37-15.71-16.9-15.71h-34.59Zm53.48,69.19c0-10.54-5.37-17.3-19.88-17.3h-33.6v34.39h35.39c13.52,0,18.09-7.36,18.09-17.1"/>
  <path class="cls-1" d="M295.52,60.17h-42.59l-52.66,132.23h29.72c.42-1.14,1.02-2.74,1.46-3.79,2.42-5.82,6.09-10.68,10.56-14.89,7.34-6.9,16.28-9.83,25.55-10.59,6.27-.51,13.63-.65,19.93-.66h19.42l11.52,29.93h29.74l-52.66-132.23Zm-10.39,79.13c-.79,0-1.55,0-2.24,.01-15.67,.14-28.54,3.83-40.98,21.98l32.32-80.25,23.46,58.25c-.36,0-12.56,0-12.56,0"/>
</svg>