<svg version="1.1" id="Layer_1" xmlns="http://www.w3.org/2000/svg" xmlns:xlink="http://www.w3.org/1999/xlink" x="0" y="0" viewBox="0 0 2000 1200" xml:space="preserve"><style>.st0{clip-path:url(#SVGID_2_)}.st1,.st2{fill:#004c66;fill-opacity:.5}.st2{fill:#aba21c}</style><defs><path id="SVGID_1_" d="M0 0h2000v1200H0z"/></defs><use xlink:href="#SVGID_1_" overflow="visible" fill-rule="evenodd" clip-rule="evenodd" fill="#007e11"/><clipPath id="SVGID_2_"><use xlink:href="#SVGID_1_" overflow="visible"/></clipPath><g class="st0"><path class="st1" d="M1832.97 1568.21l-309.94-276.66c-21.37-19.22-19.07-49.05-9.27-67.96 11.81-22.75 53.69-53.83 88.62-22.79l309.91 276.63c37.04 33.18 7.49 103.11-46.05 103.11-13.7-.01-25.14-5.12-33.27-12.33z"/><path class="st1" d="M1835.24 1503.22l-273.61-312.02c-46.29-52.83 40.42-135.88 87.47-82.57l273.91 312.39c17.5 20 14.76 48.76 2.67 68.37-8.66 13.81-27.14 30.61-52.79 30.61-15.86 0-29.05-6.78-37.65-16.78z"/><path class="st1" d="M1824.36 1440.78l-218.3-346.32c-12.73-20.22-9.9-48.2 6.35-68.62 24.34-30.65 70.2-33.54 90.24-1.71l218.3 346.34c12.86 20.33 9.83 48.22-6.19 68.47-9.8 12.43-26.94 24.46-48.44 24.46-20.39 0-34.59-10.87-41.96-22.62z"/><path class="st1" d="M1807.33 1375.06l-159.82-377.83c-8.41-19.82-4.78-48.26 16.38-68.38 34.69-32.85 76.21-14.77 87.69 12.36l159.8 377.83c8.43 19.86 4.72 48.3-16.4 68.38-10.21 9.65-25.04 17.37-41.98 17.37-25.09.02-39.86-15.98-45.67-29.73z"/><path class="st1" d="M1787.4 1253.99l-93.11-336.81c-5.14-18.64-.87-48.99 25.98-67.94 42.99-30.37 76.51 2.89 82.57 24.83l93.13 336.84c5.18 18.78.81 48.95-25.83 67.83-10.08 7.19-22.2 11.47-34.8 11.47-29.45.01-43.82-21.19-47.94-36.22z"/><path class="st1" d="M1773.73 1112.2l-45.61-265.67c-3.07-17.77 2.7-50.37 34.28-67.06 99.23-52.1 95.46 144.31 122.22 300.16 3 17.5-2.47 50.32-34.35 67.06-8.64 4.55-18.07 6.95-27.45 6.95-33.25 0-46.46-26.18-49.09-41.44z"/><path class="st1" d="M1772.17 992.84c-3.37-90.96-40.38-237.82 40.33-260.38 93.43-24.67 68.25 138.01 72.13 242.75 1.1 30.21-19.59 56.58-50.69 65.35-50.78 1.16-61.16-32.77-61.77-47.72z"/><path class="st1" d="M1785.94 886.07l12.56-114.18c1.56-14.24 16.47-57.75 62.25-57.75 45.75 0 51.13 43.46 49.55 57.75l-12.56 114.18c-1.57 14.28-16.52 57.74-62.26 57.74-45.77.01-51.11-43.51-49.54-57.74z"/><path class="st2" d="M1148.7 1606.28c-8.98-19.89-5.55-48.16 14.82-68.39l333.49-331.04c33-32.59 75.53-17.79 88.24 10.3 8.86 19.77 5.63 48.09-14.88 68.39l-333.34 330.91c-10.47 10.44-25.71 18.48-43.12 18.48-24.29.01-39.07-15.05-45.21-28.65z"/><path class="st2" d="M1163.61 1488.21c-7.3-19.51-3.5-48.37 19.35-68.26l366.77-318.49c37.59-32.57 76.81-9.04 86.29 16.38 7.32 19.51 3.55 48.41-19.38 68.3l-366.83 318.54c-10.13 8.7-24.16 15.31-39.71 15.31-26.29.01-41.12-17.37-46.49-31.78z"/><path class="st2" d="M1175.88 1356.92c-4.86-18.55-.38-49.07 26.94-67.78l397.57-272.08c43.64-29.65 76.24 4.68 81.87 26.11 4.87 18.61.34 49.11-26.92 67.81l-397.65 272.14c-9.42 6.36-21.22 10.7-33.7 10.7-29.84-.01-44.14-21.75-48.11-36.9z"/><path class="st2" d="M1198.88 1224.4c-3.28-17.88 2.19-49.95 32.99-67.04l420.37-232.66c69.14-38.4 111.91 63.24 44.62 100.29l-420.33 232.63c-8.79 4.87-18.67 7.61-28.67 7.61-32.53 0-46.11-25.23-48.98-40.83z"/><path class="st2" d="M1226.33 1097.75c-2.01-16.87 4.39-51.25 39.02-66.23l435.36-188.81c48.97-20.8 70.51 22.61 72.54 39.44 2.01 16.92-4.47 51.26-38.94 66.28l-435.23 188.73c-7.87 3.42-15.81 4.93-23.23 4.93-35.21.01-47.68-28.75-49.52-44.34z"/><path class="st2" d="M1261.52 973.44c-.78-15.97 7.37-52.99 45.76-64.72l440.59-134.89c50.62-15.68 65.98 31.13 66.73 45.64.78 15.98-7.42 52.9-45.71 64.7l-444.5 136.1c-51.48 1.39-62.1-31.89-62.87-46.83z"/><path class="st2" d="M1293.62 853.89c.29-15.27 10.93-54.76 52.65-62.33l453.14-80.85c74.63-12.73 80.15 100.5 6.91 113.76l-455.54 81.27c-41.31 0-57.45-36.8-57.16-51.85z"/><path class="st2" d="M1331.14 737.7c.97-14.74 13.64-56.3 57.59-60.23l473.3-41.71c74.38-6.07 70.64 108.48-3.11 115.08l-474.58 41.77c-43.65.01-54.14-40.41-53.2-54.91z"/><path class="st2" d="M1415.79 674.19c-43.9-3-47.7-45.11-45.6-59.65 1.67-11.73 18.06-60.13 66.54-55.53l458.14 31.53c44.07 2.96 47.59 45.56 45.58 59.65-2.12 14.65-18.01 55.7-61.99 55.7l-462.67-31.7z"/><path class="st2" d="M1450.3 569.29c-40.76-6.92-42.84-46.87-39.85-62.09 3.08-15.95 24.29-58.53 69.77-52.01l443.93 75.8c40.76 6.93 42.81 46.96 39.83 62.14-3 15.18-21.77 52.53-63.27 52.53l-450.41-76.37z"/><path class="st2" d="M1905.95 614.82l-417.87-150.94c-34.99-12.54-34.53-49.05-29.95-65.11 33.61-118.2 270.1 25.1 495.61 106.57 34.73 12.57 34.45 48.93 29.89 65.06-4.33 15.12-22.52 47.39-60.22 47.39a52.42 52.42 0 01-17.46-2.97z"/><path class="st2" d="M1919.82 573.24l-386.11-207.75c-61.63-33.14-2.17-137.91 61.09-103.55l385.89 207.64c29.54 15.9 28.26 49.3 21.87 66.7-5.64 15.44-24.53 42.83-58.74 42.83-8.88 0-17.14-2.25-24-5.87z"/><path class="st2" d="M1920.14 520.32l-348.65-243.95c-25.64-17.85-23.64-49.37-15.67-67.54 8.41-19.29 46.07-58.52 86.22-30.17l348.86 244.09c25.57 17.87 23.56 49.39 15.66 67.48-6.74 15.44-25.9 39.13-57.26 39.13-10.71.01-20.83-3.13-29.16-9.04z"/><path class="st2" d="M1917.04 482.97l-297.96-308.16c-19.2-19.8-16.59-48.86-5.4-68.21 14.37-24.98 58.34-50.06 89.7-17.77l297.94 308.13c19.13 19.8 16.53 48.86 5.39 68.19-8.28 14.36-26.97 32.53-53.92 32.53-15.43-.01-27.72-6.49-35.75-14.71z"/><path class="st2" d="M1911.69 420.12L1662.23 90.49c-15.41-20.26-12.6-48.47 1.31-68.53 19.68-28.41 65.81-41.63 90.65-8.48l249.38 329.5c15.22 20.17 12.59 48.32-1.33 68.43-9.45 13.67-27.46 27.87-50.97 27.87-17.95-.01-31.58-8.61-39.58-19.16z"/><path class="st1" d="M1295.56 750.07c-18.64-19.99-15.86-49.01-4.35-68.38l93.83-157.6c15.2-25.47 59.64-48.7 89.92-16.22 18.45 19.92 15.79 48.86 4.29 68.26l-93.92 157.75c-8.36 13.89-26.93 31.58-53.37 31.58-15.95 0-28.41-6.86-36.4-15.39z"/><path class="st1" d="M1295.12 635.71c-13.84-20.35-10.94-48.42 4.09-68.55l195.96-262.39c22.61-30.16 68.65-36.66 90.5-4.75 13.86 20.38 10.87 48.39-4.12 68.48l-195.9 262.31c-9.57 12.87-27.06 25.95-49.59 25.95-19.54.01-33.44-10.17-40.94-21.05z"/><path class="st1" d="M1304.42 515.73c-10.1-20.06-6.94-48.2 12.03-68.55l227.26-244.33c30.37-32.57 74.4-22.94 89.18 6.38 10.07 20.02 6.92 48.06-12.06 68.44l-227.3 244.37c-9.94 10.63-25.8 20.3-44.87 20.3-23.02 0-37.69-13.75-44.24-26.61z"/><path class="st1" d="M1314.21 400.43c-7.21-19.44-3.53-48.24 19.38-68.12l270.35-235.49c37.45-32.47 76.76-9.18 86.33 16.3 7.31 19.54 3.44 48.39-19.23 68.23l-270.39 235.51c-10.28 8.96-24.3 15.49-39.9 15.49-26.27 0-41.15-17.38-46.54-31.92z"/><path class="st1" d="M1332.65 287.02c-5.11-18.65-.74-48.94 26-67.85L1652.21 12.1c43.17-30.41 76.56 3.25 82.53 24.92 5.17 18.8.63 49.03-25.97 67.88l-293.5 207.01c-9.97 7.07-22.03 11.39-34.69 11.39-29.4 0-43.8-21.2-47.93-36.28z"/></g><g class="st0"><path class="st2" d="M311.09 1230.48c.96-14.74 13.65-56.3 57.6-60.23l473.3-41.7c74.38-6.07 70.64 108.47-3.11 115.08L364.3 1285.4c-43.66 0-54.15-40.42-53.21-54.92z"/><path class="st2" d="M395.73 1166.96c-43.89-3-47.7-45.11-45.6-59.65 1.66-11.73 18.06-60.13 66.54-55.53l458.14 31.53c44.07 2.96 47.59 45.56 45.58 59.65-2.12 14.65-18.01 55.7-62 55.7l-462.66-31.7z"/><path class="st2" d="M430.25 1062.07c-40.76-6.92-42.84-46.86-39.85-62.09 3.08-15.95 24.29-58.53 69.77-52.01l443.93 75.8c40.76 6.93 42.81 46.96 39.83 62.14-2.99 15.18-21.77 52.53-63.27 52.53l-450.41-76.37z"/><path class="st2" d="M885.9 1107.6L468.03 956.66c-34.99-12.54-34.53-49.05-29.95-65.11 33.62-118.2 270.1 25.1 495.61 106.57 34.73 12.57 34.45 48.93 29.89 65.06-4.33 15.12-22.52 47.39-60.22 47.39-6.59 0-12.58-1.25-17.46-2.97z"/><path class="st2" d="M899.77 1066.02l-386.1-207.76c-61.63-33.14-2.17-137.91 61.08-103.55l385.9 207.64c29.54 15.9 28.26 49.3 21.87 66.7-5.64 15.44-24.53 42.83-58.74 42.83-8.89.01-17.15-2.24-24.01-5.86z"/><path class="st2" d="M900.08 1013.1L551.43 769.15c-25.64-17.85-23.64-49.37-15.67-67.54 8.41-19.3 46.07-58.51 86.22-30.17l348.86 244.09c25.57 17.87 23.56 49.39 15.66 67.48-6.73 15.44-25.9 39.13-57.26 39.13-10.7.01-20.82-3.13-29.16-9.04z"/><path class="st2" d="M896.99 975.75L599.03 667.59c-19.19-19.8-16.58-48.86-5.4-68.21 14.38-24.98 58.34-50.06 89.7-17.78l297.94 308.13c19.13 19.8 16.53 48.86 5.39 68.18-8.27 14.36-26.97 32.53-53.92 32.53-15.43.01-27.72-6.48-35.75-14.69z"/><path class="st2" d="M891.64 912.9L642.19 583.26c-15.41-20.26-12.61-48.47 1.3-68.53 19.68-28.41 65.81-41.63 90.64-8.48l249.39 329.5c15.22 20.17 12.59 48.32-1.33 68.43-9.45 13.67-27.46 27.87-50.97 27.87-17.95 0-31.57-8.6-39.58-19.15z"/><path class="st1" d="M275.51 1242.85c-18.64-19.99-15.87-49.02-4.35-68.39l93.83-157.6c15.2-25.47 59.64-48.7 89.92-16.22 18.45 19.92 15.79 48.86 4.29 68.26l-93.92 157.75c-8.36 13.89-26.93 31.58-53.37 31.58-15.95 0-28.42-6.85-36.4-15.38z"/><path class="st1" d="M275.07 1128.49c-13.84-20.35-10.94-48.42 4.09-68.55l195.95-262.38c22.61-30.16 68.65-36.66 90.5-4.75 13.86 20.38 10.87 48.39-4.11 68.48l-195.9 262.3c-9.57 12.87-27.06 25.95-49.59 25.95-19.54 0-33.44-10.17-40.94-21.05z"/><path class="st1" d="M284.37 1008.51c-10.09-20.06-6.93-48.2 12.03-68.55l227.26-244.33c30.37-32.57 74.4-22.94 89.18 6.38 10.07 20.02 6.92 48.06-12.05 68.44l-227.3 244.37c-9.94 10.63-25.8 20.3-44.87 20.3-23.03 0-37.69-13.76-44.25-26.61z"/><path class="st1" d="M294.17 893.21c-7.22-19.44-3.53-48.24 19.38-68.12l270.35-235.5c37.45-32.47 76.76-9.18 86.33 16.3 7.31 19.53 3.44 48.39-19.23 68.23L380.61 909.63c-10.28 8.96-24.31 15.49-39.9 15.49-26.28 0-41.16-17.37-46.54-31.91z"/><path class="st1" d="M312.59 779.8c-5.11-18.65-.74-48.94 26-67.85l293.56-207.07c43.17-30.41 76.56 3.25 82.54 24.92 5.17 18.8.63 49.03-25.97 67.88l-293.5 207.01c-9.96 7.07-22.03 11.39-34.68 11.39-29.4 0-43.81-21.21-47.95-36.28z"/></g></svg>